<svg xmlns="http://www.w3.org/2000/svg" xmlns:xlink="http://www.w3.org/1999/xlink" width="332" height="124" viewBox="0 0 332 124">
    <defs>
        <filter id="Rectangle_298" x="0" y="0" width="332" height="124" filterUnits="userSpaceOnUse">
            <feOffset dy="4" input="SourceAlpha"/>
            <feGaussianBlur stdDeviation="4" result="blur"/>
            <feFlood flood-color="#e7e1d7"/>
            <feComposite operator="in" in2="blur"/>
            <feComposite in="SourceGraphic"/>
        </filter>
        <clipPath id="clip-path">
            <rect id="Rectangle_591" data-name="Rectangle 591" width="64.163" height="56.5" fill="none"/>
        </clipPath>
    </defs>
    <g id="Component_58_2" data-name="Component 58 – 2" transform="translate(12 8)">
        <g transform="matrix(1, 0, 0, 1, -12, -8)" filter="url(#Rectangle_298)">
            <rect id="Rectangle_298-2" data-name="Rectangle 298" width="308" height="100" rx="50" transform="translate(12 8)" fill="#fff"/>
        </g>
        <g id="Group_373" data-name="Group 373" transform="translate(40.918 21.75)">
            <g id="Group_359" data-name="Group 359" clip-path="url(#clip-path)">
                <path id="Path_110" data-name="Path 110" d="M64.164,35.915A20.149,20.149,0,0,0,39.9,16.194,20.145,20.145,0,1,0,5.222,33.671l-1.892,7.06,8.435-2.26a20.189,20.189,0,0,0,12.5,1.4A20.179,20.179,0,0,0,44.018,56.061,19.957,19.957,0,0,0,52.4,54.24l8.435,2.26-1.892-7.06a20.039,20.039,0,0,0,5.222-13.525M20.146,38.171a17.859,17.859,0,0,1-7.82-1.78l-.355-.171L6.329,37.732l1.248-4.659-.415-.431a18.022,18.022,0,1,1,30.682-15.9A20.18,20.18,0,0,0,23.872,35.915c0,.623.033,1.238.088,1.847a18.031,18.031,0,0,1-3.814.41M52.191,51.989l-.355.171a17.859,17.859,0,0,1-7.819,1.78A18,18,0,0,1,26.041,37.176c-.029-.417-.049-.836-.049-1.261A18.025,18.025,0,1,1,57,48.411l-.416.431L57.834,53.5ZM48.082,38.976l-2.76-7.622a.979.979,0,0,0-.367-.47.969.969,0,0,0-.562-.177h-.538a1,1,0,0,0-.928.648l-2.76,7.622a.467.467,0,0,0,.055.446.456.456,0,0,0,.4.2h.44a.894.894,0,0,0,.55-.183.959.959,0,0,0,.342-.476l.44-1.392a.135.135,0,0,1,.134-.1h3.152a.134.134,0,0,1,.134.1l.44,1.392a.96.96,0,0,0,.342.476.892.892,0,0,0,.549.183h.489a.455.455,0,0,0,.4-.2.468.468,0,0,0,.055-.446M45.26,36.167H42.94c-.065,0-.09-.033-.073-.1l1.221-3.885a.011.011,0,0,1,.012-.012.011.011,0,0,1,.012.012l1.221,3.885c.016.065-.008.1-.073.1" fill="#896f47"/>
                <path id="Path_111" data-name="Path 111" d="M45.787,44.969a5.638,5.638,0,0,0-2.236-1.8.021.021,0,0,1-.024-.024c0-.008,0-.012.012-.012a4.21,4.21,0,0,0,1.539-1.6,4.644,4.644,0,0,0,.55-2.272,4.567,4.567,0,0,0-1.215-3.341,4.862,4.862,0,0,0-6.486,0,4.565,4.565,0,0,0-1.216,3.341,4.565,4.565,0,0,0,1.216,3.341,4.334,4.334,0,0,0,3.243,1.24,4.775,4.775,0,0,1,1.674.22,2.455,2.455,0,0,1,1.038.9,1.264,1.264,0,0,0,1.075.586h.525a.351.351,0,0,0,.336-.2.342.342,0,0,0-.03-.385M41.169,42.44a2.5,2.5,0,0,1-1.979-.837,3.431,3.431,0,0,1-.733-2.339,3.432,3.432,0,0,1,.733-2.339,2.758,2.758,0,0,1,3.958,0,3.434,3.434,0,0,1,.733,2.339,3.433,3.433,0,0,1-.733,2.339,2.5,2.5,0,0,1-1.979.837" transform="translate(-21.141 -19.974)" fill="#896f47"/>
            </g>
        </g>
    </g>
</svg>
