<svg id="Component_98_9" data-name="Component 98 – 9" xmlns="http://www.w3.org/2000/svg" xmlns:xlink="http://www.w3.org/1999/xlink" width="628" height="108.846" viewBox="0 0 628 108.846">
  <defs>
    <clipPath id="clip-path">
      <rect id="Rectangle_307" data-name="Rectangle 307" width="628" height="108.846" transform="translate(-15)" fill="none"/>
    </clipPath>
  </defs>
  <g id="Group_159" data-name="Group 159" transform="translate(15 0)">
    <g id="Group_158" data-name="Group 158" transform="translate(0 0)" clip-path="url(#clip-path)">
      <path id="Path_76" data-name="Path 76" d="M623.1,53.248c0-14.011-13.436-25.527-30.629-26.865V14.066c-.152,0-.3.017-.459.017-8.212,0-14.868-5.169-14.868-11.547,0-.181.024-.357.034-.537H47.922c.011.179.036.356.036.537,0,6.378-6.658,11.547-14.87,11.547-.155,0-.3-.014-.459-.017V26.384C15.436,27.723,2,39.237,2,53.248S15.436,78.775,32.629,80.113V92.43c.155,0,.3-.017.459-.017,8.212,0,14.87,5.169,14.87,11.547,0,.181-.026.357-.036.537H577.177c-.011-.179-.034-.356-.034-.537,0-6.378,6.656-11.547,14.868-11.547.155,0,.307.014.459.017V80.113C609.663,78.775,623.1,67.261,623.1,53.248Z" transform="translate(-13.549 1.174)" fill="none" stroke="#e7e1d7" stroke-miterlimit="10" stroke-width="4"/>
      <path id="Path_77" data-name="Path 77" d="M52.154,93.781c-2.457-4.748-7.4-8.563-13.618-10.528V76.98c0-3.77-3.882-6.932-8.993-7.328-12.325-.951-21.62-9.247-21.62-19.3s9.294-18.348,21.62-19.3c5.112-.394,8.993-3.556,8.993-7.326V17.455C44.752,15.49,49.7,11.675,52.154,6.927h512.2c2.457,4.748,7.4,8.563,13.62,10.528v6.274c0,3.77,3.882,6.932,9,7.326,12.323.951,21.615,9.249,21.615,19.3s-9.292,18.348-21.615,19.3c-5.116.4-9,3.558-9,7.328v6.272c-6.216,1.965-11.163,5.78-13.62,10.528Z" transform="translate(-9.254 4.069)" fill="none" stroke="#e7e1d7" stroke-miterlimit="10" stroke-width="2"/>
      <path id="Path_78" data-name="Path 78" d="M268.492,36.119s-4.313,3.783-2.7,9.08c1.023,3.346,5.055,3.608,5.931,1.862s-1.482-1.279-3.235-4.889c-1.147-2.361,0-6.053,0-6.053" transform="translate(299.512 21.218)" fill="#e7e1d7"/>
      <path id="Path_79" data-name="Path 79" d="M283.048,34.2c-1.989-.246-8.131.859-11.694,2.3,2.947-1.532,6.563-2.935,6.71-6.1.152-3.248-4.132-3.842-5.716-.379-2.345,5.126-5.057,7.1-5.057,7.907S270,41.178,272.348,46.3c1.584,3.462,5.868,2.869,5.716-.379-.147-3.164-3.763-4.567-6.71-6.1,3.563,1.441,9.7,2.546,11.694,2.3,3.078-.379,5.35-1.875,5.35-4.2s-2.272-3.351-5.35-3.731" transform="translate(300.859 16.261)" fill="#e7e1d7"/>
      <path id="Path_80" data-name="Path 80" d="M268.492,36.891s-4.313-3.783-2.7-9.08c1.023-3.346,5.055-3.608,5.931-1.862s-1.482,1.279-3.235,4.889c-1.147,2.361,0,6.053,0,6.053" transform="translate(299.512 14.619)" fill="#e7e1d7"/>
      <path id="Path_81" data-name="Path 81" d="M27.52,36.119s4.313,3.783,2.7,9.08c-1.023,3.346-5.055,3.608-5.931,1.862s1.482-1.279,3.235-4.889c1.147-2.361,0-6.053,0-6.053" transform="translate(2.477 21.218)" fill="#e7e1d7"/>
      <path id="Path_82" data-name="Path 82" d="M19.112,34.2c1.989-.246,8.131.859,11.692,2.3-2.947-1.532-6.563-2.935-6.708-6.1-.152-3.248,4.132-3.842,5.716-.379,2.345,5.126,5.057,7.1,5.057,7.907s-2.712,3.251-5.057,8.377c-1.584,3.462-5.868,2.869-5.716-.379.145-3.164,3.761-4.567,6.708-6.1-3.561,1.441-9.7,2.546-11.692,2.3-3.078-.379-5.35-1.875-5.35-4.2s2.272-3.351,5.35-3.731" transform="translate(-5.02 16.261)" fill="#e7e1d7"/>
      <path id="Path_83" data-name="Path 83" d="M27.52,36.891s4.313-3.783,2.7-9.08c-1.023-3.346-5.055-3.608-5.931-1.862s1.482,1.279,3.235,4.889c1.147,2.361,0,6.053,0,6.053" transform="translate(2.477 14.619)" fill="#e7e1d7"/>
    </g>
  </g>
</svg>
