<svg id="Group_202" data-name="Group 202" xmlns="http://www.w3.org/2000/svg" width="372" height="26.709" viewBox="0 0 372 26.709">
  <g id="Group_199" data-name="Group 199" transform="translate(0 0)">
    <path id="Path_93" data-name="Path 93" d="M256.079,6.623a7.943,7.943,0,0,1,2.095,1.257c4.765,3.994-.8,8.836-2.331,4.318-.738-2.173-1.021-3.715-3.613-4-6.888-.765-14.565,3.736-20.369,6.535-.971.468-1.939.9-2.907,1.3,8.419,3.143,17.013,5.617,27.416,5.73,13.867.152,27.234-3.258,38.526-7.465,8.945-3.333,31.169-11.384,41.058-5.66,8.717,5.043-1.205,12.115-3.908,5.884-1.3-3-1.811-5.118-6.248-5.558-11.791-1.171-24.836,4.87-34.71,8.61-21.7,8.222-42.932,8.268-65.419-.314-10.846,3.6-21.567,2.809-32.79-2.592-2.179-1.049-4.5-2.3-6.878-3.493-2.379,1.192-4.7,2.444-6.877,3.493-11.223,5.4-21.943,6.2-32.79,2.592-22.486,8.582-43.719,8.537-65.42.314C71.041,13.828,58,7.787,46.2,8.958c-4.438.44-4.949,2.562-6.248,5.558-2.7,6.231-12.625-.841-3.908-5.884,9.889-5.723,32.113,2.327,41.058,5.66C88.4,18.5,101.765,21.91,115.633,21.758c10.4-.113,19-2.587,27.416-5.73-.967-.4-1.936-.829-2.907-1.3-5.8-2.8-13.482-7.3-20.37-6.535-2.591.288-2.875,1.829-3.612,4-1.534,4.519-7.1-.324-2.331-4.318a7.964,7.964,0,0,1,2.1-1.257H0V5.151H372V6.623Zm-21.966,5.691c2.948-1.4,8.1-4.34,13.213-5.691H203.2a66.638,66.638,0,0,1,8.7,2.7,23.684,23.684,0,0,1,2.961,1.115l1.7.713c3.521,1.382,6.938,2.789,10.363,4.109a69.641,69.641,0,0,0,7.186-2.945m-44.3-5.691h-7.624q-2.653.157-5.1.485c1.413.355,2.9.823,4.565,1.3A16.652,16.652,0,0,1,186,10.275a16.677,16.677,0,0,1,4.35-1.867c1.667-.477,3.152-.945,4.565-1.3q-2.45-.323-5.1-.485m-2.052,4.548c7.5,3.583,14.688,6.869,23.759,6.875a44.894,44.894,0,0,0,11.869-1.688c-6.895-2.84-15.341-7.321-27.409-9.1a42.224,42.224,0,0,0-9.1,3.478c.267.135.556.28.884.436m-27.278,6.875c9.07-.006,16.26-3.292,23.758-6.875.328-.156.617-.3.883-.436a42.2,42.2,0,0,0-9.1-3.478c-12.067,1.78-20.514,6.261-27.409,9.1a44.9,44.9,0,0,0,11.871,1.688m-22.593-5.731a69.178,69.178,0,0,0,7.185,2.945c3.424-1.318,6.841-2.727,10.362-4.108l1.7-.714A23.666,23.666,0,0,1,160.1,9.323a66.636,66.636,0,0,1,8.7-2.7H124.676c5.11,1.352,10.265,4.291,13.213,5.691" transform="translate(0 -2.205)" fill="#635905"/>
    <rect id="Rectangle_452" data-name="Rectangle 452" width="372" height="1.472" transform="translate(0 0)" fill="#635905"/>
    <path id="Path_94" data-name="Path 94" d="M184.274,0a37.509,37.509,0,0,1,2.347,10.174c0,3.306-1.051,4.637-2.347,4.637s-2.347-1.331-2.347-4.637A37.469,37.469,0,0,1,184.274,0" transform="translate(1.726 11.899)" fill="#635905"/>
    <path id="Path_95" data-name="Path 95" d="M185.66,4.206c.211.184.418.366.613.543,3.025,2.762,6.72,4.308,9.945,5.542a2.359,2.359,0,0,1,1.554,1.894,2.119,2.119,0,0,1-.862,2.025,3.171,3.171,0,0,1-1.9.56,6.937,6.937,0,0,1-4.664-2.127,21.086,21.086,0,0,1-4.748-8.49l.061.052" transform="translate(1.761 7.745)" fill="#635905"/>
    <path id="Path_96" data-name="Path 96" d="M172.4,10.292c3.226-1.234,6.92-2.78,9.945-5.542.195-.178.4-.359.613-.543l.06-.052a21.116,21.116,0,0,1-4.746,8.49,6.944,6.944,0,0,1-4.666,2.127,3.182,3.182,0,0,1-1.9-.56,2.12,2.12,0,0,1-.861-2.026,2.359,2.359,0,0,1,1.554-1.893" transform="translate(1.621 7.745)" fill="#635905"/>
  </g>
</svg>
