<svg id="Group_143" data-name="Group 143" xmlns="http://www.w3.org/2000/svg" xmlns:xlink="http://www.w3.org/1999/xlink" width="311.179" height="40.326" viewBox="0 0 311.179 40.326">
  <defs>
    <clipPath id="clip-path">
      <rect id="Rectangle_289" data-name="Rectangle 289" width="311.179" height="40.326" fill="#e7e1d7"/>
    </clipPath>
  </defs>
  <g id="Group_142" data-name="Group 142" clip-path="url(#clip-path)">
    <path id="Path_57" data-name="Path 57" d="M8.8,17.492a8.144,8.144,0,0,0-4.77,1.283A8.52,8.52,0,0,0,.787,22.727a11.309,11.309,0,0,0,.924,10.09,13.94,13.94,0,0,0,3.541,3.846,17.238,17.238,0,0,0,4.582,2.379,25.721,25.721,0,0,0,9.938,1.236c6.625-.428,12.86-2.483,18.851-4.824,3.018-1.164,5.919-2.531,8.911-3.652,2.982-1.161,6.029-2.156,9.064-3.168,12.2-3.844,24.444-7.66,36.831-10.416a75.193,75.193,0,0,1,9.262-1.611c3.127-.265,6.322-.42,9.47-.425a46.453,46.453,0,0,1,9.373.8c3.028.649,6.07,1.768,8.234,4.131a.147.147,0,0,0,.231-.179,11.382,11.382,0,0,0-3.572-3.365,18.934,18.934,0,0,0-4.515-2.022,43.77,43.77,0,0,0-9.666-1.673,87.42,87.42,0,0,0-9.754-.1A67.723,67.723,0,0,0,92.77,15.16a180.592,180.592,0,0,0-18.644,5.226C68,22.38,61.979,24.651,56.046,27.136c-2.979,1.208-5.921,2.507-8.883,3.749S41.287,33.5,38.29,34.561c-1.506.522-3.026,1-4.564,1.407q-2.313.587-4.652,1.012a50.465,50.465,0,0,1-9.369.852,29.583,29.583,0,0,1-9.034-1.242A13.528,13.528,0,0,1,3.62,31.6a9.915,9.915,0,0,1-1.376-8.343,7.847,7.847,0,0,1,2.373-3.686,8.3,8.3,0,0,1,4.2-1.788.148.148,0,0,0,.126-.166.149.149,0,0,0-.14-.127" transform="translate(0 -13.683)" fill="#e7e1d7"/>
    <path id="Path_58" data-name="Path 58" d="M302.366,17.784a8.305,8.305,0,0,1,4.2,1.788,7.853,7.853,0,0,1,2.372,3.686,9.915,9.915,0,0,1-1.376,8.343,13.522,13.522,0,0,1-7.051,4.988,29.583,29.583,0,0,1-9.034,1.242,50.548,50.548,0,0,1-9.369-.851q-2.337-.423-4.652-1.012c-1.538-.409-3.058-.886-4.564-1.407-3-1.065-5.9-2.432-8.873-3.677s-5.9-2.541-8.883-3.748c-5.933-2.486-11.958-4.756-18.081-6.75a180.254,180.254,0,0,0-18.643-5.226,67.864,67.864,0,0,0-9.722-1.39,87.66,87.66,0,0,0-9.754.1,43.71,43.71,0,0,0-9.666,1.672,18.937,18.937,0,0,0-4.515,2.023,11.368,11.368,0,0,0-3.572,3.364.147.147,0,0,0,.042.2.149.149,0,0,0,.189-.024c2.164-2.363,5.206-3.483,8.234-4.131a46.381,46.381,0,0,1,9.373-.8c3.148.005,6.343.159,9.47.424a75.572,75.572,0,0,1,9.262,1.611c12.387,2.756,24.626,6.573,36.831,10.416,3.035,1.012,6.082,2.007,9.064,3.168,2.992,1.121,5.893,2.489,8.911,3.652,5.991,2.342,12.226,4.4,18.851,4.824a25.7,25.7,0,0,0,9.938-1.236,17.209,17.209,0,0,0,4.582-2.379,13.922,13.922,0,0,0,3.541-3.845,11.311,11.311,0,0,0,.924-10.091,8.522,8.522,0,0,0-3.242-3.951,8.138,8.138,0,0,0-4.77-1.284.147.147,0,0,0-.014.293" transform="translate(0 -13.682)" fill="#e7e1d7"/>
    <path id="Path_59" data-name="Path 59" d="M276.247,8.091c.1.026.054.015.1.065a.865.865,0,0,1,.078.425,2.649,2.649,0,0,1-.436,1.328,2.007,2.007,0,0,1-2.29.973,4.554,4.554,0,0,1-2.451-1.822,2.8,2.8,0,0,1,.055-2.768,6.563,6.563,0,0,1,5.593-3.176,8.56,8.56,0,0,1,6.276,2.489,7.23,7.23,0,0,1,1.678,2.9,6.394,6.394,0,0,1,.048,3.289,7.475,7.475,0,0,1-4.481,4.811,13.65,13.65,0,0,1-3.475,1.007c-.6.123-1.225.156-1.838.229-.618.012-1.225.065-1.85.035a40.994,40.994,0,0,1-7.54-1.03,151.323,151.323,0,0,1-14.971-4.317L235.848,7.481c-4.986-1.661-10.006-3.268-15.126-4.612A83.49,83.49,0,0,0,204.993.08c-.676-.026-1.349-.068-2.027-.08l-2.039.018c-1.329.055-2.659.131-3.99.238a58.977,58.977,0,0,0-7.965,1.169,32.389,32.389,0,0,0-7.756,2.685,16.458,16.458,0,0,0-6.455,5.547,14.1,14.1,0,0,0-2.174,8.325,15.835,15.835,0,0,0,.208,2.15,8.5,8.5,0,0,0,.68,2.242,6.231,6.231,0,0,0,3.645,3.355,6.852,6.852,0,0,0,4.87-.241,6.724,6.724,0,0,0,3.538-3.389,6.081,6.081,0,0,0,.52-2.515,7.319,7.319,0,0,0-.478-2.4,21.094,21.094,0,0,0-1.855-3.8,18.236,18.236,0,0,0-6.034-5.931,21.6,21.6,0,0,0-7.892-2.8,26.927,26.927,0,0,0-8.286.008,21.644,21.644,0,0,0-4.083,1.042,16.823,16.823,0,0,0-3.8,2.009,19.305,19.305,0,0,0-7.88,14.482,13.954,13.954,0,0,0,1.956,8.427,9.017,9.017,0,0,0,3.424,3.124,10.235,10.235,0,0,0,8.929-.01,9,9,0,0,0,3.415-3.123A13.92,13.92,0,0,0,165.41,22.2a19.266,19.266,0,0,0-7.882-14.444,16.757,16.757,0,0,0-3.787-2,21.587,21.587,0,0,0-4.074-1.034,26.86,26.86,0,0,0-8.266,0,21.537,21.537,0,0,0-7.86,2.8,18.153,18.153,0,0,0-6,5.909,21.063,21.063,0,0,0-1.841,3.781,7.237,7.237,0,0,0-.469,2.367,5.98,5.98,0,0,0,.513,2.471,6.613,6.613,0,0,0,3.486,3.33,6.741,6.741,0,0,0,4.789.233,6.113,6.113,0,0,0,3.572-3.3,11.188,11.188,0,0,0,.871-4.346A13.974,13.974,0,0,0,136.3,9.733a16.305,16.305,0,0,0-6.407-5.489,31.947,31.947,0,0,0-7.723-2.657A59.36,59.36,0,0,0,114.227.434C112.9.329,111.572.256,110.245.2L108.216.187C107.541.2,106.87.243,106.2.27A83.155,83.155,0,0,0,90.511,3.075C85.4,4.423,80.386,6.036,75.4,7.7L60.521,12.776a152.947,152.947,0,0,1-14.993,4.35,41.356,41.356,0,0,1-7.594,1.047c-.632.03-1.251-.023-1.877-.034-.623-.073-1.255-.106-1.866-.23a13.922,13.922,0,0,1-3.549-1.024,9.465,9.465,0,0,1-2.955-2.006,6.6,6.6,0,0,1-1.66-6.459,7.542,7.542,0,0,1,1.751-3.04,8.89,8.89,0,0,1,6.52-2.6,6.9,6.9,0,0,1,5.891,3.354,3.147,3.147,0,0,1,.049,3.1,3.947,3.947,0,0,1-1.151,1.218,4.6,4.6,0,0,1-1.517.772A2.371,2.371,0,0,1,34.889,10.1a3,3,0,0,1-.495-1.52,1.2,1.2,0,0,1,.131-.619.462.462,0,0,1,.358-.236.6.6,0,0,0-.163-1.2,1.7,1.7,0,0,0-1.235.794,2.38,2.38,0,0,0-.323,1.265,4.218,4.218,0,0,0,.665,2.185,3.917,3.917,0,0,0,1.72,1.537,3.593,3.593,0,0,0,2.337.183,5.879,5.879,0,0,0,1.983-.964A5.3,5.3,0,0,0,41.4,9.92,4.53,4.53,0,0,0,41.434,5.5a8.314,8.314,0,0,0-7.087-4.212,10.418,10.418,0,0,0-7.71,2.99,9.156,9.156,0,0,0-2.176,3.685,8.366,8.366,0,0,0-.107,4.316,8.5,8.5,0,0,0,2.082,3.784A11.2,11.2,0,0,0,29.911,18.5a15.7,15.7,0,0,0,3.968,1.2c.674.143,1.354.19,2.032.275.682.024,1.374.086,2.051.062a43.06,43.06,0,0,0,7.974-1,151.083,151.083,0,0,0,15.236-4.287L76.1,9.789C81.068,8.165,86.054,6.6,91.092,5.313a81.039,81.039,0,0,1,15.244-2.619c.637-.02,1.275-.057,1.91-.064l1.9.027c1.292.062,2.581.143,3.866.254a56.661,56.661,0,0,1,7.6,1.158,30.036,30.036,0,0,1,7.1,2.468,13.737,13.737,0,0,1,5.4,4.617,11.334,11.334,0,0,1,1.717,6.733A8.676,8.676,0,0,1,135.2,21.2a3.432,3.432,0,0,1-2.027,1.9,4.227,4.227,0,0,1-4.967-2.133,3.566,3.566,0,0,1,.033-2.814,18.345,18.345,0,0,1,1.605-3.271,15.409,15.409,0,0,1,5.117-5.008,18.811,18.811,0,0,1,6.873-2.411,24.109,24.109,0,0,1,7.4.023,15.308,15.308,0,0,1,6.676,2.578,16.444,16.444,0,0,1,6.64,12.307,11.106,11.106,0,0,1-1.5,6.66,6.67,6.67,0,0,1-10.9-.009,11.1,11.1,0,0,1-1.485-6.65A16.409,16.409,0,0,1,155.3,10.1a15.247,15.247,0,0,1,6.657-2.558,24.036,24.036,0,0,1,7.376-.012,18.7,18.7,0,0,1,6.842,2.412,15.319,15.319,0,0,1,5.08,4.987,18.209,18.209,0,0,1,1.591,3.255,3.463,3.463,0,0,1,.031,2.737,3.837,3.837,0,0,1-2.024,1.9,3.973,3.973,0,0,1-2.81.165,3.314,3.314,0,0,1-1.954-1.839,8.57,8.57,0,0,1-.619-3.268,11.2,11.2,0,0,1,1.706-6.652,13.587,13.587,0,0,1,5.356-4.559A29.491,29.491,0,0,1,189.6,4.232,56.773,56.773,0,0,1,197.18,3.09c1.283-.11,2.569-.189,3.859-.248l1.892-.025c.632.008,1.268.046,1.9.067a80.788,80.788,0,0,1,15.2,2.634c5.029,1.3,10.008,2.863,14.975,4.494L249.927,15a152.63,152.63,0,0,0,15.258,4.32,43.338,43.338,0,0,0,8.028,1.012c.684.025,1.388-.036,2.079-.06.687-.085,1.374-.132,2.059-.276a15.992,15.992,0,0,0,4.043-1.219,11.5,11.5,0,0,0,3.573-2.5,8.8,8.8,0,0,0,2.163-3.919,8.687,8.687,0,0,0-.105-4.482,9.468,9.468,0,0,0-2.249-3.821,10.743,10.743,0,0,0-7.955-3.1,8.648,8.648,0,0,0-7.384,4.39,5.375,5.375,0,0,0-.6,2.335,4.509,4.509,0,0,0,.64,2.417,5.648,5.648,0,0,0,1.63,1.717,6.23,6.23,0,0,0,2.105,1.024,3.949,3.949,0,0,0,2.568-.2,4.269,4.269,0,0,0,1.882-1.673,4.575,4.575,0,0,0,.724-2.376,2.744,2.744,0,0,0-.377-1.459,2.07,2.07,0,0,0-1.5-.966.971.971,0,0,0-.342,1.9Z" transform="translate(0 5.555)" fill="#e7e1d7"/>
  </g>
</svg>
