<svg xmlns="http://www.w3.org/2000/svg" xmlns:xlink="http://www.w3.org/1999/xlink" width="98" height="98" viewBox="0 0 98 98">
    <defs>
        <filter id="Ellipse_1" x="0" y="0" width="98" height="98" filterUnits="userSpaceOnUse">
            <feOffset dy="3" input="SourceAlpha"/>
            <feGaussianBlur stdDeviation="3" result="blur"/>
            <feFlood flood-opacity="0.161"/>
            <feComposite operator="in" in2="blur"/>
            <feComposite in="SourceGraphic"/>
        </filter>
        <clipPath id="clip-path">
            <rect id="Rectangle_67" data-name="Rectangle 67" width="34.783" height="26.553" fill="#fff"/>
        </clipPath>
    </defs>
    <g id="Group_76" data-name="Group 76" transform="translate(-474 -7511)">
        <g transform="matrix(1, 0, 0, 1, 474, 7511)" filter="url(#Ellipse_1)">
            <circle id="Ellipse_1-2" data-name="Ellipse 1" cx="40" cy="40" r="40" transform="translate(9 6)" fill="#635905"/>
        </g>
        <g id="Group_26" data-name="Group 26" transform="translate(505.439 7543.554)">
            <g id="Group_25" data-name="Group 25" transform="translate(0 0)" clip-path="url(#clip-path)">
                <path id="Path_15" data-name="Path 15" d="M32.094,26.553H2.689A2.691,2.691,0,0,1,0,23.865V2.688A2.692,2.692,0,0,1,2.689,0H32.094a2.692,2.692,0,0,1,2.689,2.688V23.865a2.691,2.691,0,0,1-2.689,2.688M2.689,1.866a.823.823,0,0,0-.822.822V23.865a.823.823,0,0,0,.822.822H32.094a.823.823,0,0,0,.823-.822V2.688a.824.824,0,0,0-.823-.822Z" transform="translate(0 0)" fill="#fff"/>
                <path id="Path_16" data-name="Path 16" d="M26.116,26.829a.932.932,0,0,1-.614-.23L12.776,15.477A.933.933,0,0,1,14,14.072L26.116,24.657,38.229,14.072a.933.933,0,0,1,1.228,1.405L26.73,26.6a.932.932,0,0,1-.614.23" transform="translate(-8.725 -9.695)" fill="#fff"/>
            </g>
        </g>
    </g>
</svg>
