<svg xmlns="http://www.w3.org/2000/svg" xmlns:xlink="http://www.w3.org/1999/xlink" width="88" height="88" viewBox="0 0 88 88">
    <defs>
        <filter id="Ellipse_2" x="0" y="0" width="88" height="88" filterUnits="userSpaceOnUse">
            <feOffset dy="3" input="SourceAlpha"/>
            <feGaussianBlur stdDeviation="3" result="blur"/>
            <feFlood flood-opacity="0.161"/>
            <feComposite operator="in" in2="blur"/>
            <feComposite in="SourceGraphic"/>
        </filter>
        <clipPath id="clip-path">
            <rect id="Rectangle_612" data-name="Rectangle 612" width="24.145" height="39.996" fill="#fff"/>
        </clipPath>
    </defs>
    <g id="Group_77" data-name="Group 77" transform="translate(9 6)">
        <g transform="matrix(1, 0, 0, 1, -9, -6)" filter="url(#Ellipse_2)">
            <circle id="Ellipse_2-2" data-name="Ellipse 2" cx="35" cy="35" r="35" transform="translate(9 6)" fill="#635905"/>
        </g>
        <g id="Group_388" data-name="Group 388" transform="translate(23 15)" clip-path="url(#clip-path)">
            <path id="Path_152" data-name="Path 152" d="M21.771,0H2.375A2.5,2.5,0,0,0,0,2.6V37.4A2.5,2.5,0,0,0,2.375,40h19.4a2.5,2.5,0,0,0,2.375-2.6V2.6A2.5,2.5,0,0,0,21.771,0m-9.7,38.344A2.028,2.028,0,1,1,14.1,36.317a2.028,2.028,0,0,1-2.028,2.028m9.257-5.983H2.816V3.564H21.329Z" fill="#fff"/>
        </g>
    </g>
</svg>
