<svg id="Group_374" data-name="Group 374" xmlns="http://www.w3.org/2000/svg" width="256.525" height="46.786" viewBox="0 0 256.525 46.786">
    <path id="Path_112" data-name="Path 112" d="M32.974,13.115a9.065,9.065,0,0,1,8.191-1.644c3.721,1.029,7.509,4.49,7.883,11.264.341,6.287-3.9,14.7-9.24,11.371a7.434,7.434,0,0,1-3.654-5.585l-1.9-.14a6.41,6.41,0,0,0,5.144,7.082C44.9,36.946,51.954,30.5,51.386,22.168A12.151,12.151,0,0,0,34.8,11.405c2.3-1.844,1.6-5.051,2.786-6.641,1.263-1.7,2.425-.294,1.483,1.43a3.094,3.094,0,0,1-2.1,1.73q-.07.391-.18.782c1.951-.635,4.663-2.318,4.663-4.029,0-2.459-3.36-1.4-4.844-.241a6.147,6.147,0,0,0-2.345,4.957,5.826,5.826,0,0,1-1.543,3.474l.247.254Z" transform="translate(-10.862 -1.05)"/>
    <path id="Path_113" data-name="Path 113" d="M29.834,7.706c.033-.287.08-.561.127-.822-1.657-.5-3.22-2.272-4.1-3.608A7.765,7.765,0,0,0,22.124-.01c-.08,1.156-.742,1.51-1.844,2.058,1.884.361,3.14,1.45,5.171,3.28A10.66,10.66,0,0,0,29.834,7.7Z" transform="translate(-6.733 0.01)"/>
    <path id="Path_114" data-name="Path 114" d="M30.989,39.107c.655-2.913,1.884-6.28,3.447-7.509,1.35-1.062,2.606-.728,2.873,1.062a3.909,3.909,0,0,1-1.644,3.461c-.909.555-1.463.775-1.871-.12l-1.757.8c.8.581,2.158.428,3.788-.027,1.523-.428,3.975-2.505,3.574-4.924-.367-2.258-2.726-2.051-4.924-.815-2.712,1.51-4.109,3.247-5.378,8.331-.7,2.8-1.276,5.959-4.029,9.941a5.9,5.9,0,0,0,2.873-1.236,42.185,42.185,0,0,0,3.04-8.952Z" transform="translate(-8.323 -9.992)"/>
    <path id="Path_115" data-name="Path 115" d="M33.127,24.134a8.782,8.782,0,0,0-.127.922c2.251-1.517,5.111-3.347,7-5.792,1.824-2.358.3-3.855-2.238-3.267-2.465.581-4.456,2.325-6.1,5.812-1.39,2.973-1.476,7.823-1.724,14.531a24.313,24.313,0,0,1,2.151-6.547,62.191,62.191,0,0,1,1.169-8.071c.521-1.971,1.817-4.456,3.327-4.9,1.169-.341,2.225.22,1.971,1.59-.314,1.67-2.859,3.982-5.432,5.719Z" transform="translate(-9.939 -5.26)"/>
    <path id="Path_116" data-name="Path 116" d="M25.09,28.661c.588-.408,1.79-1.3,2.285-1.6a19.282,19.282,0,0,1,.989-4.49,10.171,10.171,0,0,0,.869-5.178l-2.285.461a14.553,14.553,0,0,1-.681,5.358A15.827,15.827,0,0,0,25.1,28.654Z" transform="translate(-8.33 -5.765)"/>
    <path id="Path_117" data-name="Path 117" d="M15.138,39.033c-1.911,2.285-1.851,5.518.154,6.5,2.706,1.323,6.467-.688,7.322-4.5a49.569,49.569,0,0,0,.788-7.469,17.9,17.9,0,0,0-2.338,1.824,25.989,25.989,0,0,1-.548,7.129c-.555,2.272-1.777,3.461-3.534,2.432-2.1-1.229-1.142-4.9.635-6.921A39.907,39.907,0,0,1,24.705,32.3c0-.12.067-.862.094-.989-2.559,1.6-7.73,5.4-9.674,7.723Z" transform="translate(-4.564 -10.385)"/>
    <path id="Path_118" data-name="Path 118" d="M11.218,41.785c-5.465-4.476-8.131-8.952-9.013-14.457-.828-5.171,1.122-8.7,3.661-10.589,1.978-1.476,4.5-2.064,5.3-.835,1,1.53.14,3.922-.708,5.913-.955,2.238-1.35,4.984.281,6.614,1.5,1.51,4.276.241,5.759-1.724.033-.735.581-2.552.742-3.387-.715,1.33-1.877,4.456-3.274,4.8-1.35.341-2.532-.5-1.971-3.02.374-1.657,1.169-3.661,1.664-5.2.615-1.917.621-3.648-.9-4.677-2.793-1.911-7.61.855-9.474,3.08a12.835,12.835,0,0,0-3.026,11.3C1.531,36.454,7.069,41.117,10.4,44c3.407,2.966,8,5.732,9.079,7.189a20.57,20.57,0,0,1,.855-2.185c-1.1-1.109-6.333-4.924-9.119-7.215Z" transform="translate(-0.003 -4.833)"/>
    <path id="Path_119" data-name="Path 119" d="M40.686,55c-5.852.982-10.2,6.374-10.656,10.035l2.378-.9c1.136-4.242,4.984-8.218,8.124-8.805L40.686,55Z" transform="translate(-9.969 -18.248)"/>
    <path id="Path_120" data-name="Path 120" d="M51.009,51.25c2.926-.087,7.489-.675,8.638-1.991-1.376-.127-1.036-1.456-.722-2.779a15.2,15.2,0,0,1-6.1,3.294c-2.819,1-6.788.735-8.866,4.436-1.1,1.937-.7,3.942.848,4.777,2.258,1.216,6.073-1.416,6.22-3.795.16-2.586-1.684-3.08-3.227-3.267a6.124,6.124,0,0,0-1.149.675c2.953.454,3.955,4.3,1.831,5.485-1.4.782-4.162-.9-3.381-3.634.728-2.552,2.672-3.107,5.906-3.2Z" transform="translate(-14.386 -15.42)"/>
    <path id="Path_121" data-name="Path 121" d="M97.14,14.417c-.047.448,1.256.815.247,3.36-1.229,3.107-4.977,12.553-7.63,19.268-1.35-3.534-5.665-14.825-7.422-19.381a3.412,3.412,0,0,1-.287-1.857c.073-.641.9-1,.848-1.436a22.815,22.815,0,0,1-6.267.094c.174.514,1.8.862,2.519,2.732.775,1.991,7.563,19.628,9.113,23.624-.434,1.116-.788,2-1.015,2.606-.915,2.325-1.51,5.351-4.683,7.015,2.211,0,4.329-2.325,5.766-5.873,1.557-3.821,9.34-23.544,10.529-26.543,1.37-3.434,2.465-2.873,2.652-3.588a25.18,25.18,0,0,1-4.369-.02Z" transform="translate(-25.436 -4.763)"/>
    <path id="Path_122" data-name="Path 122" d="M128.55,22.274c0-1.1.722-1.4.929-1.9a13.763,13.763,0,0,1-4.65-.04c.167.468,1.016.8,1.016,2.064V40.613a4.8,4.8,0,0,1-3.6,1.657c-3.24,0-5.3-2.866-5.3-6.855V22.541c0-1.764.695-1.657.969-2.211a15.318,15.318,0,0,1-4.784-.02c.08.488,1.036.361,1.036,2.425V33.759c0,7.476,3.534,9.58,6.434,9.58a7.36,7.36,0,0,0,5.245-1.931c-.22,1.229-.882,1.43-1.082,1.944a34.927,34.927,0,0,1,4.8,0c-.087-.387-1.042-.575-1.016-2.659.013-.735,0-17.3,0-18.413Z" transform="translate(-37.551 -6.734)"/>
    <path id="Path_123" data-name="Path 123" d="M314.28,22.274c0-1.1.721-1.4.915-1.9a13.684,13.684,0,0,1-4.637-.04c.167.468,1.009.8,1.009,2.064V40.613a4.8,4.8,0,0,1-3.594,1.657c-3.247,0-5.291-2.866-5.291-6.855V22.541c0-1.764.695-1.657.962-2.211a15.319,15.319,0,0,1-4.784-.02c.08.488,1.036.361,1.036,2.425V33.759c0,7.476,3.528,9.58,6.434,9.58a7.331,7.331,0,0,0,5.238-1.931c-.22,1.229-.875,1.43-1.082,1.944a34.83,34.83,0,0,1,4.8,0c-.094-.387-1.049-.575-1.015-2.659V22.281Z" transform="translate(-99.196 -6.734)"/>
    <path id="Path_124" data-name="Path 124" d="M165,40.447c-.334-2.251-2.492-17.771-2.586-18.513-.16-1.39.575-1.289.722-1.757a21.308,21.308,0,0,1-4.129,0c.18.494.494.281.688,1.724L154.04,37.921s-5.726-14.284-6.527-16.248c-.434-1.069.334-1.069.434-1.523a30.148,30.148,0,0,1-4.924.053c.167.595.982.073,1.757,2.018.073.187.214.534.408,1.022-.615,4.216-2.271,15.847-2.572,17.925-.247,1.744-1.2,1.65-1.3,2.125a15.357,15.357,0,0,1,3.715.02c.04-.367-1.456-.628-1.229-2.358.18-1.356,1.6-11.03,2.258-15.526,2.405,6.006,7.209,17.972,7.209,17.972l6.741-18.974c.648,4.877,2.185,15.5,2.312,16.362.281,1.837-.641,1.837-.668,2.325a42.173,42.173,0,0,1,4.77.04c.02-.6-1.029-.107-1.416-2.712Z" transform="translate(-46.907 -6.681)"/>
    <path id="Path_125" data-name="Path 125" d="M187.283,43.186c0-.428-.942-.5-.942-1.61V22.308c0-1.877.955-1.6.989-2.058a22.578,22.578,0,0,1-4.75,0c.027.461.982.18.982,2.058V41.575c0,1.109-.942,1.183-.942,1.61a29.454,29.454,0,0,1,4.67,0Z" transform="translate(-60.602 -6.714)"/>
    <path id="Path_126" data-name="Path 126" d="M232.384,49.085c-7.449-2.826-12.413-8.057-20.671-19.762,0,0,4.383-5.819,5.726-7.556.862-1.109,2.031-1.089,2.051-1.436-.347.013-2.358.013-3.033,0-.154.454.1.842-.481,1.6-1.216,1.57-6.541,8.458-6.694,8.645v-8.2c0-1.871.949-1.6.982-2.058a21.338,21.338,0,0,1-4.663,0c.033.461.989.187.989,2.058V41.635c0,1.109-.935,1.2-.942,1.6a29.072,29.072,0,0,1,4.576,0c0-.408-.942-.488-.942-1.6V30.605c8.632,12.353,12.981,15.466,20.938,18.867,8.932,3.815,23.29,1.764,32.035-1.991-4.249,1.416-18.359,5.966-29.877,1.6Z" transform="translate(-68.243 -6.734)"/>
    <path id="Path_127" data-name="Path 127" d="M249.279,40.484c-.668-1.737-7.9-20.8-7.9-20.8s-6.327,18.446-7.1,20.7c-.862,2.505-1.664,1.937-1.944,2.639a25.157,25.157,0,0,1,3.167-.14c-.047-.374-.588-1.156-.3-2,.154-.448.822-2.385,1.644-4.77H244.8c.822,2.185,1.517,4.035,1.817,4.737.581,1.423-.247,1.476-.281,1.964a34.7,34.7,0,0,1,4.837-.02c-.18-.494-1.376-.969-1.891-2.3Zm-12.072-5.458c1.57-4.563,3.467-10.068,3.467-10.068s2.011,5.485,3.728,10.068Z" transform="translate(-77.114 -6.525)"/>
    <path id="Path_128" data-name="Path 128" d="M372.729,40.484c-.668-1.737-7.9-20.8-7.9-20.8s-6.327,18.446-7.1,20.7c-.862,2.505-1.67,1.937-1.944,2.639a25.1,25.1,0,0,1,3.167-.14c-.047-.374-.595-1.156-.307-2,.16-.448.828-2.385,1.65-4.77h7.964c.822,2.185,1.517,4.035,1.811,4.737.588,1.423-.247,1.476-.274,1.964a34.49,34.49,0,0,1,4.824-.02c-.174-.494-1.37-.969-1.884-2.3Zm-12.072-5.458c1.57-4.563,3.461-10.068,3.461-10.068s2.018,5.485,3.735,10.068h-7.189Z" transform="translate(-118.089 -6.525)"/>
    <path id="Path_129" data-name="Path 129" d="M270.235,20.187H256c-.14,0-.354.04-.655,2.078.421-.762.608-1.009,1.289-1.009h5.138V41.345c0,1.109-.942,1.189-.942,1.6a30.131,30.131,0,0,1,4.723,0c0-.414-1.076-.8-1.076-1.911V21.249H269.6c.675,0,.875.247,1.289,1.009-.307-2.038-.508-2.078-.648-2.078Z" transform="translate(-84.755 -6.691)"/>
    <path id="Path_130" data-name="Path 130" d="M289.313,21.156a17.14,17.14,0,0,1-.08,2.98c-1.7-4.917-6.233-3.641-6.815-1.443-.882,3.307,1.991,4.944,3.895,7.289,1.67,2.051,5.3,4.5,4.369,8.558-.989,4.289-5.5,4.723-7.229,4.269a13.851,13.851,0,0,0-2.873-.688,29.366,29.366,0,0,1,.12-4.256c.207,2.1,2.632,5.418,5.7,3.895,3.033-1.49,2.532-4.977-1.149-8.658-2.171-2.171-6.514-6.32-3.975-10.756a5.079,5.079,0,0,1,6.547-1.744,9.294,9.294,0,0,0,1.476.555Z" transform="translate(-93.103 -6.658)"/>
    <path id="Path_131" data-name="Path 131" d="M340.846,38.834c-.909-1.476-2.779-4.55-4.556-7.483a5.6,5.6,0,0,0,3.234-5.285c0-4.8-3.962-6.16-6.587-5.812a18.931,18.931,0,0,1-4.536,0c.02.441.975.775.975,2.118V40.137c0,2.372-.608,2.165-.975,2.839a31.956,31.956,0,0,1,4.59.08c-.033-.521-1.049-.575-1.015-2.672v-8.2a7.864,7.864,0,0,0,1.764-.053c1.43,2.459,2.933,5.091,4.115,6.868,1.884,2.833,5.325,5.024,8.157,4.029-1.537-.053-3.354-1.249-5.178-4.176Zm-8.866-7.449V21.25c3.26-.9,4.7,1.57,4.7,4.65,0,2.018-.227,5.906-4.69,5.485Z" transform="translate(-109.001 -6.699)"/>
</svg>
